<svg width="102" height="27" viewBox="0 0 102 27" fill="none" xmlns="http://www.w3.org/2000/svg">
<path d="M7.372 21.224C5.916 21.224 4.64667 20.9907 3.564 20.524C2.48133 20.0573 1.64133 19.404 1.044 18.564C0.465333 17.724 0.176 16.7347 0.176 15.596V14.896C0.176 14.8027 0.204 14.728 0.26 14.672C0.334667 14.5973 0.418667 14.56 0.512 14.56H3.004C3.09733 14.56 3.172 14.5973 3.228 14.672C3.30267 14.728 3.34 14.8027 3.34 14.896V15.428C3.34 16.2867 3.72267 17.0053 4.488 17.584C5.25333 18.144 6.29867 18.424 7.624 18.424C8.76267 18.424 9.62133 18.1813 10.2 17.696C10.7787 17.2107 11.068 16.5853 11.068 15.82C11.068 15.2973 10.9093 14.8587 10.592 14.504C10.2747 14.1307 9.81733 13.7947 9.22 13.496C8.64133 13.1973 7.764 12.824 6.588 12.376C5.26267 11.8907 4.18933 11.4333 3.368 11.004C2.54667 10.5747 1.856 9.996 1.296 9.268C0.754667 8.52133 0.484 7.59733 0.484 6.496C0.484 4.85333 1.08133 3.556 2.276 2.604C3.47067 1.652 5.06667 1.176 7.064 1.176C8.464 1.176 9.696 1.41867 10.76 1.904C11.8427 2.38933 12.6827 3.07067 13.28 3.948C13.8773 4.80667 14.176 5.80533 14.176 6.944V7.42C14.176 7.51333 14.1387 7.59733 14.064 7.672C14.008 7.728 13.9333 7.756 13.84 7.756H11.32C11.2267 7.756 11.1427 7.728 11.068 7.672C11.012 7.59733 10.984 7.51333 10.984 7.42V7.112C10.984 6.23467 10.62 5.49733 9.892 4.9C9.18267 4.284 8.19333 3.976 6.924 3.976C5.89733 3.976 5.09467 4.19067 4.516 4.62C3.956 5.04933 3.676 5.656 3.676 6.44C3.676 7 3.82533 7.45733 4.124 7.812C4.42267 8.16667 4.87067 8.49333 5.468 8.792C6.06533 9.072 6.98933 9.436 8.24 9.884C9.56533 10.388 10.62 10.8453 11.404 11.256C12.2067 11.6667 12.888 12.2453 13.448 12.992C14.0267 13.72 14.316 14.6347 14.316 15.736C14.316 17.416 13.6907 18.7507 12.44 19.74C11.208 20.7293 9.51867 21.224 7.372 21.224ZM29.347 12.236C29.4216 12.7027 29.459 13.2253 29.459 13.804L29.431 14.672C29.431 14.896 29.319 15.008 29.095 15.008H20.331C20.2376 15.008 20.191 15.0547 20.191 15.148C20.247 15.764 20.331 16.184 20.443 16.408C20.891 17.752 21.983 18.4333 23.719 18.452C24.9883 18.452 25.9963 17.9293 26.743 16.884C26.8176 16.772 26.911 16.716 27.023 16.716C27.0976 16.716 27.163 16.744 27.219 16.8L28.955 18.228C29.123 18.3587 29.151 18.508 29.039 18.676C28.4603 19.4973 27.6856 20.132 26.715 20.58C25.763 21.028 24.699 21.252 23.523 21.252C22.067 21.252 20.8256 20.9253 19.799 20.272C18.791 19.6187 18.0536 18.704 17.587 17.528C17.1576 16.52 16.943 15.12 16.943 13.328C16.943 12.2453 17.055 11.368 17.279 10.696C17.6523 9.38933 18.3523 8.36267 19.379 7.616C20.4243 6.85067 21.675 6.468 23.131 6.468C26.8083 6.468 28.8803 8.39067 29.347 12.236ZM23.131 9.268C22.4403 9.268 21.8616 9.44533 21.395 9.8C20.947 10.136 20.6296 10.612 20.443 11.228C20.331 11.5453 20.2563 11.956 20.219 12.46C20.1816 12.5533 20.219 12.6 20.331 12.6H26.015C26.1083 12.6 26.155 12.5533 26.155 12.46C26.1176 11.9933 26.0616 11.6387 25.987 11.396C25.819 10.724 25.483 10.2013 24.979 9.828C24.4936 9.45467 23.8776 9.268 23.131 9.268ZM39.742 8.988C39.742 9.08133 39.7046 9.16533 39.63 9.24C39.574 9.296 39.4993 9.324 39.406 9.324H36.55C36.4566 9.324 36.41 9.37067 36.41 9.464V16.212C36.41 16.9213 36.5593 17.4347 36.858 17.752C37.1753 18.0693 37.67 18.228 38.342 18.228H39.182C39.2753 18.228 39.35 18.2653 39.406 18.34C39.4806 18.396 39.518 18.4707 39.518 18.564V20.664C39.518 20.8693 39.406 20.9907 39.182 21.028L37.726 21.056C36.2513 21.056 35.15 20.804 34.422 20.3C33.694 19.796 33.3206 18.844 33.302 17.444V9.464C33.302 9.37067 33.2553 9.324 33.162 9.324H31.566C31.4726 9.324 31.3886 9.296 31.314 9.24C31.258 9.16533 31.23 9.08133 31.23 8.988V7.028C31.23 6.93467 31.258 6.86 31.314 6.804C31.3886 6.72933 31.4726 6.692 31.566 6.692H33.162C33.2553 6.692 33.302 6.64533 33.302 6.552V3.276C33.302 3.18267 33.33 3.108 33.386 3.052C33.4606 2.97733 33.5446 2.94 33.638 2.94H36.074C36.1673 2.94 36.242 2.97733 36.298 3.052C36.3726 3.108 36.41 3.18267 36.41 3.276V6.552C36.41 6.64533 36.4566 6.692 36.55 6.692H39.406C39.4993 6.692 39.574 6.72933 39.63 6.804C39.7046 6.86 39.742 6.93467 39.742 7.028V8.988ZM50.2146 8.988C50.2146 9.08133 50.1773 9.16533 50.1026 9.24C50.0466 9.296 49.972 9.324 49.8786 9.324H47.0226C46.9293 9.324 46.8826 9.37067 46.8826 9.464V16.212C46.8826 16.9213 47.032 17.4347 47.3306 17.752C47.648 18.0693 48.1426 18.228 48.8146 18.228H49.6546C49.748 18.228 49.8226 18.2653 49.8786 18.34C49.9533 18.396 49.9906 18.4707 49.9906 18.564V20.664C49.9906 20.8693 49.8786 20.9907 49.6546 21.028L48.1986 21.056C46.724 21.056 45.6226 20.804 44.8946 20.3C44.1666 19.796 43.7933 18.844 43.7746 17.444V9.464C43.7746 9.37067 43.728 9.324 43.6346 9.324H42.0386C41.9453 9.324 41.8613 9.296 41.7866 9.24C41.7306 9.16533 41.7026 9.08133 41.7026 8.988V7.028C41.7026 6.93467 41.7306 6.86 41.7866 6.804C41.8613 6.72933 41.9453 6.692 42.0386 6.692H43.6346C43.728 6.692 43.7746 6.64533 43.7746 6.552V3.276C43.7746 3.18267 43.8026 3.108 43.8586 3.052C43.9333 2.97733 44.0173 2.94 44.1106 2.94H46.5466C46.64 2.94 46.7146 2.97733 46.7706 3.052C46.8453 3.108 46.8826 3.18267 46.8826 3.276V6.552C46.8826 6.64533 46.9293 6.692 47.0226 6.692H49.8786C49.972 6.692 50.0466 6.72933 50.1026 6.804C50.1773 6.86 50.2146 6.93467 50.2146 7.028V8.988ZM54.9473 4.732C54.3686 4.732 53.8926 4.54533 53.5193 4.172C53.1459 3.79867 52.9593 3.32267 52.9593 2.744C52.9593 2.16533 53.1459 1.68933 53.5193 1.316C53.8926 0.942666 54.3686 0.755999 54.9473 0.755999C55.5259 0.755999 56.0019 0.942666 56.3753 1.316C56.7486 1.68933 56.9353 2.16533 56.9353 2.744C56.9353 3.32267 56.7486 3.79867 56.3753 4.172C56.0019 4.54533 55.5259 4.732 54.9473 4.732ZM53.6033 21C53.5099 21 53.4259 20.972 53.3513 20.916C53.2953 20.8413 53.2673 20.7573 53.2673 20.664V7C53.2673 6.90667 53.2953 6.832 53.3513 6.776C53.4259 6.70133 53.5099 6.664 53.6033 6.664H56.1793C56.2726 6.664 56.3473 6.70133 56.4033 6.776C56.4779 6.832 56.5153 6.90667 56.5153 7V20.664C56.5153 20.7573 56.4779 20.8413 56.4033 20.916C56.3473 20.972 56.2726 21 56.1793 21H53.6033ZM67.096 6.468C68.608 6.468 69.812 6.916 70.708 7.812C71.6227 8.708 72.08 9.93067 72.08 11.48V20.664C72.08 20.7573 72.0427 20.8413 71.968 20.916C71.912 20.972 71.8373 21 71.744 21H69.168C69.0747 21 68.9907 20.972 68.916 20.916C68.86 20.8413 68.832 20.7573 68.832 20.664V12.152C68.832 11.2933 68.5893 10.6027 68.104 10.08C67.6187 9.53867 66.9747 9.268 66.172 9.268C65.3693 9.268 64.716 9.52933 64.212 10.052C63.7267 10.5747 63.484 11.2653 63.484 12.124V20.664C63.484 20.7573 63.4467 20.8413 63.372 20.916C63.316 20.972 63.2413 21 63.148 21H60.572C60.4787 21 60.3947 20.972 60.32 20.916C60.264 20.8413 60.236 20.7573 60.236 20.664V7.028C60.236 6.93467 60.264 6.86 60.32 6.804C60.3947 6.72933 60.4787 6.692 60.572 6.692H63.148C63.2413 6.692 63.316 6.72933 63.372 6.804C63.4467 6.86 63.484 6.93467 63.484 7.028V7.924C63.484 7.98 63.5027 8.01733 63.54 8.036C63.5773 8.05467 63.6053 8.036 63.624 7.98C64.3893 6.972 65.5467 6.468 67.096 6.468ZM84.2305 7.028C84.2305 6.93467 84.2585 6.86 84.3145 6.804C84.3891 6.72933 84.4731 6.692 84.5665 6.692H87.1425C87.2358 6.692 87.3105 6.72933 87.3665 6.804C87.4411 6.86 87.4785 6.93467 87.4785 7.028V20.048C87.4785 22.3813 86.8065 24.0427 85.4625 25.032C84.1371 26.04 82.3918 26.544 80.2265 26.544C79.6478 26.544 79.0785 26.516 78.5185 26.46C78.3131 26.4413 78.2105 26.32 78.2105 26.096L78.2945 23.8C78.2945 23.5947 78.4251 23.492 78.6865 23.492C79.2278 23.548 79.7131 23.576 80.1425 23.576C81.5425 23.576 82.5691 23.296 83.2225 22.736C83.8945 22.1947 84.2305 21.2707 84.2305 19.964V19.74C84.2305 19.684 84.2118 19.656 84.1745 19.656C84.1371 19.6373 84.0998 19.6467 84.0625 19.684C83.2971 20.5053 82.2145 20.916 80.8145 20.916C79.6011 20.916 78.4905 20.608 77.4825 19.992C76.4745 19.376 75.7745 18.4333 75.3825 17.164C75.1398 16.2867 75.0185 15.1573 75.0185 13.776C75.0185 12.2267 75.1678 11.0413 75.4665 10.22C75.8398 9.08133 76.4838 8.176 77.3985 7.504C78.3131 6.81333 79.3865 6.468 80.6185 6.468C82.0931 6.468 83.2411 6.89733 84.0625 7.756C84.0998 7.812 84.1371 7.83067 84.1745 7.812C84.2118 7.79333 84.2305 7.756 84.2305 7.7V7.028ZM84.0345 16.24C84.1091 15.96 84.1558 15.6613 84.1745 15.344C84.2118 15.008 84.2305 14.476 84.2305 13.748C84.2305 13.0387 84.2118 12.5347 84.1745 12.236C84.1558 11.9187 84.0998 11.6107 84.0065 11.312C83.8571 10.696 83.5491 10.2013 83.0825 9.828C82.6345 9.45467 82.0558 9.268 81.3465 9.268C80.6745 9.268 80.1051 9.45467 79.6385 9.828C79.1718 10.2013 78.8358 10.696 78.6305 11.312C78.4065 11.8347 78.2945 12.656 78.2945 13.776C78.2945 14.9333 78.3878 15.7453 78.5745 16.212C78.7611 16.8093 79.0971 17.304 79.5825 17.696C80.0865 18.0693 80.6838 18.256 81.3745 18.256C82.1025 18.256 82.6905 18.0693 83.1385 17.696C83.5865 17.3227 83.8851 16.8373 84.0345 16.24ZM96.0443 21.168C94.8683 21.168 93.8323 21 92.9363 20.664C92.0589 20.3093 91.3776 19.8333 90.8923 19.236C90.4069 18.62 90.1643 17.9387 90.1643 17.192V16.94C90.1643 16.8467 90.1923 16.772 90.2483 16.716C90.3229 16.6413 90.4069 16.604 90.5003 16.604H92.9643C93.0576 16.604 93.1323 16.6413 93.1883 16.716C93.2629 16.772 93.3003 16.8467 93.3003 16.94V16.996C93.3003 17.4627 93.5523 17.8733 94.0563 18.228C94.5789 18.564 95.2323 18.732 96.0163 18.732C96.7629 18.732 97.3696 18.5827 97.8363 18.284C98.3029 17.9667 98.5363 17.5747 98.5363 17.108C98.5363 16.6787 98.3403 16.3613 97.9483 16.156C97.5749 15.932 96.9589 15.6987 96.1003 15.456L95.0363 15.12C94.0843 14.84 93.2816 14.5413 92.6283 14.224C91.9749 13.9067 91.4243 13.4773 90.9763 12.936C90.5283 12.376 90.3043 11.6667 90.3043 10.808C90.3043 9.50133 90.8176 8.46533 91.8443 7.7C92.8709 6.916 94.2243 6.524 95.9043 6.524C97.0429 6.524 98.0416 6.71067 98.9003 7.084C99.7589 7.43867 100.422 7.94267 100.888 8.596C101.355 9.23067 101.588 9.95867 101.588 10.78C101.588 10.8733 101.551 10.9573 101.476 11.032C101.42 11.088 101.346 11.116 101.252 11.116H98.8723C98.7789 11.116 98.6949 11.088 98.6203 11.032C98.5643 10.9573 98.5363 10.8733 98.5363 10.78C98.5363 10.2947 98.2936 9.89333 97.8083 9.576C97.3416 9.24 96.6976 9.072 95.8763 9.072C95.1483 9.072 94.5509 9.212 94.0843 9.492C93.6363 9.75333 93.4123 10.1267 93.4123 10.612C93.4123 11.06 93.6269 11.4053 94.0563 11.648C94.5043 11.872 95.2416 12.124 96.2683 12.404L96.8843 12.572C97.8736 12.8707 98.7043 13.1787 99.3763 13.496C100.048 13.7947 100.618 14.224 101.084 14.784C101.551 15.3253 101.784 16.0347 101.784 16.912C101.784 18.2373 101.262 19.2827 100.216 20.048C99.1709 20.7947 97.7803 21.168 96.0443 21.168Z" fill="white"/>
</svg>
